inDegrees=yes
name=ik_Xsens_quaternion
DataType=double
version=3
OpenSimVersion=4.4-2022-07-23-0e9fedc
endheader
time	pelvis_tilt	pelvis_list	pelvis_rotation	pelvis_tx	pelvis_ty	pelvis_tz	hip_flexion_r	hip_adduction_r	hip_rotation_r	knee_angle_r	knee_angle_r_beta	ankle_angle_r	subtalar_angle_r	mtp_angle_r	hip_flexion_l	hip_adduction_l	hip_rotation_l	knee_angle_l	knee_angle_l_beta	ankle_angle_l	subtalar_angle_l	mtp_angle_l	lumbar_extension	lumbar_bending	lumbar_rotation	arm_flex_r	arm_add_r	arm_rot_r	elbow_flex_r	pro_sup_r	wrist_flex_r	wrist_dev_r	arm_flex_l	arm_add_l	arm_rot_l	elbow_flex_l	pro_sup_l	wrist_flex_l	wrist_dev_l
42.53333333333333	-2.99104751612327e-12	-2.433963403872641e-12	-3.262771573538166e-12	-4.655840979974468e-14	0.93	6.280766181259681e-19	-6.148990311490794e-35	-6.147223130692543e-18	1.025536199218769e-29	1.041966694812639e-05	1.818574952055541e-07	-5.697154505311025e-17	-1.121045761495495e-13	1.942849338736422e-14	4.191292067799688e-20	-2.156925043480511e-20	-3.109182800169397e-21	9.768711027857725e-06	1.70496171110217e-07	3.445968058155311e-17	4.483490567774023e-13	2.147843646905583e-18	-2.990944825891009e-12	-6.544400585035994e-13	-3.262850229985235e-12	8.240620031443172e-20	-4.806456752836286e-17	-6.032825804599862e-16	1.032664119834787e-05	1.040331762456484e-05	-5.001689515988293e-15	-6.614885134533359e-15	-57.96618295779972	-95.98965406098304	-89.18894984849656	10.15894632299044	44.99969199081727	-9.785284493994347e-16	-1.471247094151072e-13
42.55	3.069229709428831e-34	0	0	-8.125204718680275e-49	0.93	-3.915182680799115e-54	0	0	6.80069944890737e-65	0	1.175494350822288e-38	0	2.756486475356217e-48	1.148536031398424e-49	0	1.743807233575419e-35	4.563872144215996e-56	1.165563032122464e-41	0	0	0	0	6.034637516865451e-34	-6.278132235184651e-35	-1.077613842297402e-34	0	0	0	0	3.541433481745477e-37	0	3.771648448040907e-35	-57.83247446225992	-95.94351906914895	-89.11354757867491	10.18976414514048	44.99969219724505	-2.27314422880938e-50	0
42.56666666666666	4.339046447235228e-27	-1.46168300661278e-18	5.785395262980304e-27	1.407291449491822e-22	0.93	8.938044114060722e-23	-7.275850162302406e-35	6.452705465451922e-22	-1.967101750001686e-69	6.422339571393017e-08	1.120909712029953e-09	1.579801854341945e-17	-1.244456963335393e-18	-1.146259291725408e-17	-9.881508210762204e-21	2.845432641808707e-34	7.448736029230209e-22	6.422339571389675e-08	1.120919554182664e-09	3.272877324138749e-17	-1.606618608020009e-18	-2.273863784253373e-20	4.339046447235228e-27	-2.428759553607683e-22	-5.785395262980304e-27	1.423907103927157e-12	-5.164108597536908e-16	2.338155370725711e-15	6.422339333435096e-08	6.422338899225474e-08	-2.541810000909545e-18	-1.123971748799893e-19	-57.14077039799287	-95.89997204107331	-88.45405705427987	10.21105355075106	44.99969557392741	-3.876899496859963e-18	-1.576547300390894e-19
42.58333333333334	0	0	0	0	0.93	0	0	0	0	0	0	0	0	0	0	0	0	0	0	0	0	0	0	0	0	0	0	0	0	0	0	0	-57.59449335485451	-95.90683150865323	-88.93359419665481	10.12478432226879	44.99969728939485	0	0
42.6	0	-8.620910738379216e-35	0	0	0.93	0	1.077613842297402e-35	0	0	0	0	0	0	0	1.077613842297402e-35	0	0	0	0	0	0	0	0	-8.620910738379216e-35	5.239397644772352e-35	0	0	0	0	0	0	0	-57.58099813026549	-95.90263448083736	-88.94206942966539	10.05792371849963	44.99969743832234	0	0
42.61666666666667	0	0	0	0	0.93	0	-4.714560560051134e-36	-1.262298994057171e-35	0	0	0	0	0	0	-4.714560560051134e-36	-1.262298994057171e-35	0	0	0	0	0	0	0	0	0	0	1.428967441260147e-36	0	0	0	0	1.788582067256437e-36	-57.56018140482477	-95.88666066820485	-88.91064191261509	10.03543650377913	44.99969774229667	0	1.788582067256437e-36
42.63333333333333	0	0	0	0	0.93	0	0	0	0	0	0	0	0	0	0	0	0	0	0	0	0	0	0	0	0	0	0	0	0	0	0	0	-57.17831012282637	-95.86991531575198	-88.45007939823624	10.06879283198036	44.99969945784794	0	0
42.65	0	0	0	0	0.93	0	0	0	0	0	0	0	0	0	0	0	0	0	0	0	0	0	0	0	0	0	0	0	0	0	0	0	-57.24723955892969	-95.88299835041751	-88.40049415946542	10.05533572601234	44.99969971892579	0	0
42.66666666666666	0	0	0	0	0.93	0	0	0	0	0	0	0	0	0	0	0	0	0	0	0	0	0	0	0	0	0	0	0	0	0	0	0	-56.81252741042584	-95.88363718155512	-87.86748366448083	10.02478289204632	44.99970209886475	0	0
42.68333333333333	0	0	0	0	0.93	0	0	0	0	0	0	0	0	0	0	0	0	0	0	0	0	0	0	0	0	0	0	0	0	0	0	0	-56.84922009049781	-95.90480107273288	-87.82744606736401	9.944098838381894	44.99970224799661	0	0
42.7	4.907325069421951e-25	7.209425183468989e-21	-9.528356330980356e-25	-1.412080761503173e-23	0.93	9.690690172850011e-25	0	3.31116130983809e-18	2.602803612555885e-36	2.88987188178498e-16	5.04377797251636e-18	9.884075777120856e-15	1.377312448192267e-20	-3.580374537053721e-20	-2.914948424910033e-23	0	9.106274107907293e-24	2.889870797996518e-16	5.043797598020727e-18	-2.034184318861086e-14	-1.029299642024636e-20	-3.394118471991441e-20	8.853552962442095e-26	-2.727005585349868e-24	1.169837845888272e-24	3.785157275922693e-23	-4.07755856281219e-14	-3.440661848471198e-14	2.889872384855945e-16	2.88987375861611e-16	-4.680667888153497e-21	-7.462842127612011e-20	-56.06505469142763	-95.88135634812114	-86.97633859729545	9.948214116049126	44.99970450208594	-8.170640731569524e-23	8.22756339402909e-21
42.71666666666667	1.873204026160465e-12	1.851834037295741e-13	-8.378294972110863e-13	-2.502220241368181e-17	0.93	-2.508006358777095e-19	-3.797079097515802e-28	7.298909950459433e-19	4.913395243513948e-41	2.399529574431258e-16	4.187969258151154e-18	-2.008491349592214e-14	-2.022670004546958e-21	-5.503817915409096e-18	-1.67300004071503e-15	-4.658610849359053e-29	3.275599408288478e-17	2.399529594142523e-16	4.187970304181212e-18	-2.484840192341844e-14	-3.872537122745568e-21	-2.91800943232728e-16	1.873204026161515e-12	1.867236147194307e-13	-8.37829497213507e-13	3.67975993690539e-24	-5.1877683682408e-14	-4.36494440401135e-14	2.399529349326452e-16	2.399529949272158e-16	-1.251128179163627e-16	4.992748089098401e-15	-56.08928378835255	-95.90020186402721	-86.92730554890626	9.906701126485959	44.999704676982	6.424262572062855e-16	-5.732437786573799e-15
42.73333333333333	-4.176426929220977e-26	-4.00212610393165e-17	5.090237265193962e-27	6.664902451456358e-19	0.93	2.457627578963204e-19	-3.788393854690906e-36	-3.75474847686447e-19	1.087402258127423e-47	7.041517893808396e-17	1.228976714459058e-18	8.567227954089175e-18	1.020759999519053e-21	7.27049906925565e-20	-3.342903760051673e-19	-4.656443120426813e-37	-2.069862372257469e-19	7.043485617323747e-17	1.229320155091105e-18	-5.606738562625865e-18	1.219489256124037e-19	3.490961146680248e-20	1.53848820527082e-26	1.380092056740474e-18	-2.751384887383585e-26	-4.042596644969538e-26	9.916974817395315e-18	-4.516557799068366e-18	7.041389891820773e-17	7.041520451898084e-17	-8.011997573135595e-20	-1.139584777940943e-18	-54.70209690282237	-95.86392567214671	-85.4699966887795	9.985031441578405	44.99971221592332	1.122293547318048e-18	9.293631114938579e-18
42.75	0	0	0	0	0.93	-6.525304467998525e-55	0	0	2.073749939135534e-84	1.483553901301697e-37	1.175494350822288e-38	0	0	0	8.139008033839346e-41	2.07621748833944e-35	0	7.110449754448501e-37	0	0	0	0	0	-1.077613842297402e-35	0	0	0	0	1.503445723074974e-38	0	0	0	-54.70644729080939	-95.88683261075023	-85.41428837511431	9.908536573831562	44.9997123418227	0	1.017604464897401e-37
42.76666666666667	0	0	0	0	0.93	0	0	0	0	0	0	0	0	0	0	0	0	1.233231173283465e-39	0	0	0	0	0	0	0	0	0	0	0	0	0	0	-52.93916923964203	-95.83802660828425	-83.6113335210656	9.94708115266779	44.99971579234305	0	0
